<svg xmlns="http://www.w3.org/2000/svg" width="32" height="32" viewBox="0 0 32 32" fill="none">
    <mask id="mask0_55090_2248" style="mask-type:alpha" maskUnits="userSpaceOnUse" x="0" y="0" width="32" height="32">
        <rect width="32" height="32" fill="#D9D9D9"/>
    </mask>
    <g mask="url(#mask0_55090_2248)">
        <path d="M18.6663 13.2V10.9333C19.3997 10.6222 20.1497 10.3889 20.9163 10.2333C21.683 10.0778 22.4886 9.99998 23.333 9.99998C23.9108 9.99998 24.4775 10.0444 25.033 10.1333C25.5886 10.2222 26.133 10.3333 26.6663 10.4666V12.6C26.133 12.4 25.5941 12.25 25.0497 12.15C24.5052 12.05 23.933 12 23.333 12C22.4886 12 21.6775 12.1055 20.8997 12.3166C20.1219 12.5278 19.3775 12.8222 18.6663 13.2ZM18.6663 20.5333V18.2666C19.3997 17.9555 20.1497 17.7222 20.9163 17.5666C21.683 17.4111 22.4886 17.3333 23.333 17.3333C23.9108 17.3333 24.4775 17.3778 25.033 17.4666C25.5886 17.5555 26.133 17.6666 26.6663 17.8V19.9333C26.133 19.7333 25.5941 19.5833 25.0497 19.4833C24.5052 19.3833 23.933 19.3333 23.333 19.3333C22.4886 19.3333 21.6775 19.4333 20.8997 19.6333C20.1219 19.8333 19.3775 20.1333 18.6663 20.5333ZM18.6663 16.8666V14.6C19.3997 14.2889 20.1497 14.0555 20.9163 13.9C21.683 13.7444 22.4886 13.6666 23.333 13.6666C23.9108 13.6666 24.4775 13.7111 25.033 13.8C25.5886 13.8889 26.133 14 26.6663 14.1333V16.2666C26.133 16.0666 25.5941 15.9166 25.0497 15.8166C24.5052 15.7166 23.933 15.6666 23.333 15.6666C22.4886 15.6666 21.6775 15.7722 20.8997 15.9833C20.1219 16.1944 19.3775 16.4889 18.6663 16.8666ZM8.66634 21.3333C9.71079 21.3333 10.7275 21.45 11.7163 21.6833C12.7052 21.9166 13.6886 22.2666 14.6663 22.7333V9.59998C13.7552 9.06665 12.7886 8.66665 11.7663 8.39998C10.7441 8.13331 9.71079 7.99998 8.66634 7.99998C7.86634 7.99998 7.0719 8.07776 6.28301 8.23331C5.49412 8.38887 4.73301 8.6222 3.99967 8.93331V22.1333C4.77745 21.8666 5.54967 21.6666 6.31634 21.5333C7.08301 21.4 7.86634 21.3333 8.66634 21.3333ZM17.333 22.7333C18.3108 22.2666 19.2941 21.9166 20.283 21.6833C21.2719 21.45 22.2886 21.3333 23.333 21.3333C24.133 21.3333 24.9163 21.4 25.683 21.5333C26.4497 21.6666 27.2219 21.8666 27.9997 22.1333V8.93331C27.2663 8.6222 26.5052 8.38887 25.7163 8.23331C24.9275 8.07776 24.133 7.99998 23.333 7.99998C22.2886 7.99998 21.2552 8.13331 20.233 8.39998C19.2108 8.66665 18.2441 9.06665 17.333 9.59998V22.7333ZM15.9997 26.6666C14.933 25.8222 13.7775 25.1666 12.533 24.7C11.2886 24.2333 9.99967 24 8.66634 24C7.73301 24 6.81634 24.1222 5.91634 24.3666C5.01634 24.6111 4.15523 24.9555 3.33301 25.4C2.86634 25.6444 2.41634 25.6333 1.98301 25.3666C1.54967 25.1 1.33301 24.7111 1.33301 24.2V8.13331C1.33301 7.88887 1.39412 7.65554 1.51634 7.43331C1.63856 7.21109 1.8219 7.04442 2.06634 6.93331C3.08856 6.39998 4.15523 5.99998 5.26634 5.73331C6.37745 5.46665 7.51079 5.33331 8.66634 5.33331C9.95523 5.33331 11.2163 5.49998 12.4497 5.83331C13.683 6.16665 14.8663 6.66665 15.9997 7.33331C17.133 6.66665 18.3163 6.16665 19.5497 5.83331C20.783 5.49998 22.0441 5.33331 23.333 5.33331C24.4886 5.33331 25.6219 5.46665 26.733 5.73331C27.8441 5.99998 28.9108 6.39998 29.933 6.93331C30.1775 7.04442 30.3608 7.21109 30.483 7.43331C30.6052 7.65554 30.6663 7.88887 30.6663 8.13331V24.2C30.6663 24.7111 30.4497 25.1 30.0163 25.3666C29.583 25.6333 29.133 25.6444 28.6663 25.4C27.8441 24.9555 26.983 24.6111 26.083 24.3666C25.183 24.1222 24.2663 24 23.333 24C21.9997 24 20.7108 24.2333 19.4663 24.7C18.2219 25.1666 17.0663 25.8222 15.9997 26.6666Z" fill="#42474E"/>
    </g>
</svg>
