<svg xmlns="http://www.w3.org/2000/svg" width="250" height="60" viewBox="0 0 250 60" fill="none">
    <path d="M6.88281 30.9726C6.88281 23.2142 10.3739 19.3352 17.3556 19.3352C18.7974 19.3352 20.0735 19.5175 21.1962 19.877C22.3129 20.2418 23.2333 20.7516 23.9509 21.4169C24.675 22.0769 25.2396 22.8332 25.6503 23.6812C26.0676 24.5341 26.3316 25.4839 26.448 26.5355C26.448 26.5729 26.448 26.6159 26.448 26.6588C26.448 27.0613 26.2397 27.3886 25.8218 27.6406C25.3559 27.9089 24.7791 28.0484 24.0919 28.0591C24.0186 28.0591 23.9509 28.0591 23.8776 28.0591C23.2271 28.0591 22.7117 27.968 22.3313 27.791C21.8959 27.5924 21.6135 27.2222 21.4847 26.6802C21.1841 25.4462 20.7179 24.5394 20.0858 23.9654C19.46 23.3914 18.4719 23.1016 17.1288 23.1016C16.3802 23.1016 15.7178 23.2142 15.1285 23.4343C14.5398 23.6543 14.0673 23.9654 13.6994 24.3786C13.3307 24.7865 13.0243 25.2317 12.7727 25.7093C12.5214 26.1868 12.3308 26.7392 12.2143 27.3779C12.0919 28.011 12.0116 28.6012 11.9624 29.1538C11.9137 29.7065 11.8891 30.3127 11.8891 30.9726C11.8891 31.7614 11.9199 32.4804 11.9875 33.1348C12.0549 33.7949 12.1956 34.4869 12.4229 35.2219C12.6439 35.957 12.9324 36.5741 13.2941 37.0784C13.6745 37.5721 14.1961 37.9852 14.8399 38.3231C15.4784 38.6506 16.2144 38.8114 17.055 38.8114C17.0796 38.8114 17.1042 38.8114 17.1288 38.8114C17.822 38.8114 18.4292 38.7202 18.9444 38.5325C19.46 38.35 19.8833 38.0765 20.2143 37.706C20.5458 37.3358 20.8037 36.9659 21.0001 36.5849C21.1903 36.2039 21.3743 35.7371 21.5521 35.1792C21.7119 34.7069 22.0001 34.3582 22.4171 34.1436C22.8408 33.9288 23.4233 33.811 24.1657 33.7895C25.0675 33.7895 25.718 33.9397 26.1289 34.2455C26.4299 34.4654 26.5767 34.7821 26.5767 35.2007C26.5767 35.3508 26.5586 35.5116 26.5215 35.689C26.3682 36.4076 26.1414 37.0944 25.8405 37.7383C25.5399 38.3822 25.1349 39.0046 24.6197 39.6055C24.1045 40.2065 23.5031 40.7214 22.8221 41.1562C22.1411 41.5908 21.3067 41.9395 20.3312 42.1915C19.3556 42.4493 18.2942 42.5779 17.1408 42.5779C10.3001 42.5779 6.88281 38.7095 6.88281 30.9726ZM29.9147 39.3964V22.5329C29.9147 21.9588 30.0126 21.4704 30.209 21.0788C30.4112 20.6872 30.6872 20.392 31.0497 20.1989C31.4053 20.0058 31.7795 19.8716 32.1723 19.7966C32.5586 19.7268 33.0127 19.6891 33.5281 19.6891H43.6449C44.6755 19.6891 45.1911 20.333 45.1911 21.6209C45.1911 22.9085 44.6755 23.5522 43.6508 23.5522H35.4543C35.2273 23.5522 35.0741 23.5898 34.9819 23.6702C34.8899 23.7506 34.8471 23.8903 34.8471 24.0996V28.6386H42.2585C43.2829 28.6386 43.7918 29.2825 43.7918 30.5701C43.7918 31.858 43.2829 32.5016 42.2585 32.5016H34.8471V37.8082C34.8471 38.0173 34.8899 38.1623 34.9819 38.2427C35.0741 38.3231 35.2273 38.3608 35.4543 38.3608H43.6508C44.6755 38.3608 45.1911 39.0046 45.1911 40.2923C45.1911 41.5799 44.6755 42.2238 43.6449 42.2238H33.5281C33.0127 42.2238 32.5586 42.1864 32.1723 42.1165C31.7795 42.0414 31.4053 41.9072 31.0497 41.7194C30.6872 41.5318 30.4112 41.2421 30.209 40.8504C30.0126 40.4587 29.9147 39.9704 29.9147 39.3964ZM48.86 41.0058V22.5329C48.86 21.9588 48.9582 21.4759 49.1483 21.0788C49.3385 20.6872 49.6146 20.392 49.9761 20.1989C50.3322 20.0058 50.7126 19.8716 51.1052 19.8018C51.5042 19.7268 51.9581 19.6891 52.4732 19.6891H58.9461C61.2098 19.6891 63.0812 20.3064 64.5474 21.5402C66.0137 22.7797 66.7496 24.4109 66.7496 26.4443C66.7496 27.8822 66.3264 29.1109 65.4735 30.1302C64.6208 31.1551 63.5472 31.8794 62.265 32.3086C63.3695 33.0008 64.3267 34.1167 65.1305 35.6621C65.2591 35.9302 65.4555 36.3272 65.7068 36.837C65.9585 37.3522 66.1611 37.7706 66.3201 38.087C66.4739 38.4089 66.6763 38.7847 66.9278 39.2138C67.1792 39.6432 67.4311 40.0349 67.6827 40.3942C67.9095 40.6945 68.0258 40.9684 68.0258 41.2098C68.0383 41.4835 67.8971 41.725 67.6151 41.9341C67.0873 42.3205 66.3941 42.5136 65.5412 42.5136C64.2098 42.5136 63.3078 42.2347 62.8418 41.682C62.5044 41.2902 62.1852 40.8019 61.8726 40.2011C61.5593 39.6055 61.2098 38.8546 60.8295 37.9531C60.4429 37.0516 60.1485 36.397 59.9462 35.9893C59.4795 35.0879 58.9399 34.3904 58.3201 33.8914C57.7067 33.3924 56.9091 33.1456 55.9275 33.1456H53.7191V41.0058C53.7191 42.0092 52.9091 42.5136 51.2892 42.5136C49.6699 42.5136 48.86 42.0092 48.86 41.0058ZM53.7191 29.4757H58.437C59.4307 29.4757 60.2097 29.1913 60.7803 28.6278C61.3511 28.0591 61.6332 27.3348 61.6332 26.4443C61.6332 25.532 61.3572 24.8239 60.8049 24.3142C60.2589 23.8044 59.4678 23.5522 58.437 23.5522H54.3446C54.1298 23.5522 53.97 23.5898 53.8721 23.6702C53.7681 23.7506 53.7191 23.8903 53.7191 24.0996V29.4757ZM69.4923 41.596C69.468 41.5318 69.4555 41.4674 69.4555 41.3922C69.4555 41.258 69.4986 41.1025 69.578 40.9362L77.192 20.9716C77.4128 20.4242 77.7806 20.0219 78.2904 19.759C78.8058 19.496 79.3945 19.3673 80.0631 19.3673C80.7321 19.3673 81.3271 19.496 81.8487 19.7536C82.3639 20.0112 82.7317 20.4083 82.9532 20.9447L90.5665 40.9093C90.6465 41.081 90.6896 41.2366 90.6896 41.3762C90.6896 41.4512 90.6771 41.521 90.6525 41.5854C90.5853 41.7785 90.4869 41.9286 90.3643 42.0414C90.2415 42.1541 90.0512 42.2399 89.7997 42.2988C89.5421 42.358 89.3029 42.3955 89.076 42.417C88.8548 42.4384 88.5973 42.4493 88.3213 42.4493C87.591 42.4493 87.0023 42.3526 86.5604 42.1595C86.1127 41.9609 85.769 41.5532 85.5236 40.9362L84.0758 37.0732H75.9527L74.4986 40.9254C74.2656 41.5478 73.928 41.9609 73.4923 42.1541C73.0568 42.3526 72.4865 42.4493 71.7746 42.4493C71.4989 42.4493 71.2532 42.4384 71.0322 42.417C70.8114 42.3955 70.5783 42.358 70.3267 42.2988C70.0814 42.2399 69.8976 42.1595 69.7745 42.0468C69.6582 41.9341 69.56 41.7839 69.4923 41.596ZM77.3699 33.3066H82.6524L80.8854 28.6117C80.4561 27.512 80.1615 26.4766 80.0017 25.5108C79.8301 26.5355 79.548 27.5656 79.1431 28.6012L77.3699 33.3066ZM93.5238 41.0058V21.068C93.5238 20.537 93.7448 20.1451 94.1861 19.8985C94.6281 19.6517 95.1864 19.5283 95.8614 19.5283C96.7878 19.5283 97.4748 19.8181 97.9289 20.392C98.119 20.6334 98.7326 21.6101 99.7633 23.3269C100.794 25.0385 101.776 26.6911 102.714 28.2845L104.113 30.6722C107.819 24.3571 109.862 20.9286 110.261 20.392C110.715 19.8181 111.414 19.5283 112.359 19.5283C113.034 19.5283 113.586 19.6463 114.015 19.8877C114.439 20.1292 114.653 20.5261 114.653 21.068V41.0058C114.653 41.5478 114.426 41.9395 113.979 42.1703C113.524 42.4009 112.96 42.5136 112.285 42.5136C111.617 42.5136 111.04 42.4009 110.573 42.1703C110.101 41.9395 109.868 41.5478 109.868 41.0058V27.968C109.69 28.4724 109.242 29.3952 108.524 30.7366L105.689 35.6298C105.408 36.1181 104.88 36.3649 104.113 36.3649C103.328 36.3649 102.788 36.1181 102.506 35.6298L99.7079 30.7366C99.0515 29.6044 98.5855 28.6816 98.3093 27.968V41.0058C98.3093 41.5478 98.0762 41.9395 97.6099 42.1703C97.1437 42.4009 96.5731 42.5136 95.898 42.5136C95.2232 42.5136 94.659 42.4009 94.2048 42.1703C93.7511 41.9395 93.5238 41.5478 93.5238 41.0058ZM119.414 41.0058V21.0359C119.414 20.0539 120.23 19.5604 121.856 19.5604C123.518 19.5604 124.347 20.0539 124.347 21.0359V41.0058C124.347 42.0092 123.518 42.5136 121.856 42.5136C120.23 42.5136 119.414 42.0092 119.414 41.0058ZM127.979 30.9726C127.979 23.2142 131.47 19.3352 138.452 19.3352C139.893 19.3352 141.17 19.5175 142.292 19.877C143.409 20.2418 144.329 20.7516 145.047 21.4169C145.771 22.0769 146.336 22.8332 146.747 23.6812C147.164 24.5341 147.428 25.4839 147.544 26.5355C147.544 26.5729 147.544 26.6159 147.544 26.6588C147.544 27.0613 147.335 27.3886 146.918 27.6406C146.452 27.9089 145.875 28.0484 145.188 28.0591C145.114 28.0591 145.047 28.0591 144.974 28.0591C144.323 28.0591 143.808 27.968 143.427 27.791C142.992 27.5924 142.709 27.2222 142.581 26.6802C142.28 25.4462 141.814 24.5394 141.182 23.9654C140.556 23.3914 139.568 23.1016 138.225 23.1016C137.476 23.1016 136.814 23.2142 136.225 23.4343C135.635 23.6543 135.163 23.9654 134.795 24.3786C134.427 24.7865 134.12 25.2317 133.869 25.7093C133.617 26.1868 133.427 26.7392 133.311 27.3779C133.188 28.011 133.108 28.6012 133.059 29.1538C133.01 29.7065 132.985 30.3127 132.985 30.9726C132.985 31.7614 133.016 32.4804 133.083 33.1348C133.151 33.7949 133.292 34.4869 133.519 35.2219C133.74 35.957 134.028 36.5741 134.39 37.0784C134.771 37.5721 135.292 37.9852 135.936 38.3231C136.574 38.6506 137.311 38.8114 138.151 38.8114C138.175 38.8114 138.2 38.8114 138.225 38.8114C138.918 38.8114 139.526 38.7202 140.041 38.5325C140.556 38.35 140.979 38.0765 141.311 37.706C141.642 37.3358 141.9 36.9659 142.096 36.5849C142.286 36.2039 142.47 35.7371 142.648 35.1792C142.808 34.7069 143.096 34.3582 143.513 34.1436C143.936 33.9288 144.519 33.811 145.262 33.7895C146.164 33.7895 146.814 33.9397 147.225 34.2455C147.526 34.4654 147.673 34.7821 147.673 35.2007C147.673 35.3508 147.654 35.5116 147.618 35.689C147.464 36.4076 147.237 37.0944 146.937 37.7383C146.636 38.3822 146.231 39.0046 145.716 39.6055C145.2 40.2065 144.599 40.7214 143.918 41.1562C143.237 41.5908 142.403 41.9395 141.427 42.1915C140.452 42.4493 139.391 42.5779 138.237 42.5779C131.396 42.5779 127.979 38.7095 127.979 30.9726Z" fill="#3C3B3B"/>
    <path d="M160.114 38.4467C159.813 37.894 159.777 37.3842 159.998 36.9282C160.218 36.4668 160.654 36.1181 161.298 35.8872C161.887 35.6621 162.452 35.6029 162.997 35.7156C163.544 35.8337 163.961 36.1232 164.249 36.5956C164.648 37.4165 165.151 38.0066 165.752 38.3662C166.36 38.7256 167.132 38.9081 168.071 38.9081C169.182 38.9081 170.084 38.554 170.777 37.8404C171.47 37.1267 171.814 36.2359 171.814 35.1684C171.814 34.4764 171.697 33.8753 171.458 33.3655C171.219 32.8613 170.918 32.4588 170.562 32.1744C170.2 31.8848 169.746 31.6595 169.194 31.4878C168.648 31.3213 168.126 31.214 167.63 31.1603C167.132 31.1068 166.562 31.0799 165.93 31.0799C165.537 31.0799 165.194 30.978 164.9 30.7687C164.605 30.5542 164.384 30.259 164.249 29.8727C163.887 29.0411 164.028 28.3008 164.66 27.6406L167.452 24.7488C167.906 24.2659 168.329 23.8688 168.722 23.5522H162.169C161.261 23.5522 160.807 22.9085 160.807 21.6209C160.807 20.333 161.274 19.6891 162.206 19.6891H173.679C174.63 19.6891 175.065 20.333 174.98 21.6209C174.955 22.2271 174.63 22.8066 174.004 23.3645L169.532 27.5765C169.464 27.6406 169.451 27.7158 169.488 27.8125C169.525 27.9037 169.599 27.9572 169.703 27.968C171.703 28.1666 173.366 28.8856 174.685 30.1302C176.01 31.3697 176.673 32.931 176.673 34.8197C176.66 36.3595 176.28 37.7168 175.525 38.9027C174.765 40.083 173.734 40.9952 172.427 41.6282C171.115 42.2615 169.636 42.5779 167.973 42.5779C166.292 42.5779 164.746 42.2399 163.335 41.5586C161.918 40.877 160.844 39.8417 160.114 38.4467ZM182.041 39.3641V22.5329C182.041 21.9588 182.139 21.4704 182.33 21.0788C182.52 20.6872 182.796 20.392 183.158 20.1989C183.514 20.0058 183.894 19.8716 184.287 19.7966C184.685 19.7268 185.139 19.6891 185.655 19.6891H190.722C192.134 19.6891 193.409 19.8877 194.557 20.2847C195.698 20.6872 196.661 21.2345 197.446 21.9319C198.232 22.6295 198.888 23.4557 199.416 24.416C199.943 25.3766 200.324 26.4013 200.563 27.4906C200.802 28.5851 200.925 29.7439 200.925 30.9726C200.925 32.2013 200.809 33.3601 200.576 34.4441C200.342 35.5331 199.962 36.558 199.434 37.5184C198.907 38.479 198.256 39.3052 197.483 39.9971C196.71 40.6894 195.747 41.2312 194.594 41.6282C193.434 42.0253 192.146 42.2238 190.722 42.2238H185.655C185.127 42.2238 184.673 42.1864 184.287 42.1165C183.906 42.0414 183.532 41.9072 183.164 41.7194C182.802 41.5318 182.52 41.2366 182.33 40.8396C182.139 40.4425 182.041 39.949 182.041 39.3641ZM186.9 37.8082C186.9 38.0173 186.949 38.1623 187.054 38.2427C187.152 38.3231 187.311 38.3608 187.526 38.3608H190.729C191.52 38.3608 192.219 38.2052 192.839 37.8886C193.453 37.5721 193.949 37.1696 194.33 36.6762C194.704 36.1824 195.017 35.6029 195.263 34.9324C195.508 34.267 195.68 33.6125 195.778 32.9633C195.87 32.3192 195.919 31.6541 195.919 30.9726C195.919 30.302 195.87 29.6366 195.766 28.9822C195.667 28.322 195.489 27.6623 195.238 26.9969C194.986 26.3261 194.667 25.7468 194.293 25.2476C193.913 24.7488 193.416 24.3408 192.802 24.0245C192.182 23.708 191.496 23.5522 190.729 23.5522H187.526C187.311 23.5522 187.152 23.5898 187.054 23.6702C186.949 23.7506 186.9 23.8957 186.9 24.105V37.8082Z" fill="#008DD2"/>
    <path d="M231.705 25.6803L240.605 36.3897C240.633 36.4229 240.657 36.4537 240.677 36.482C240.908 36.8065 240.994 37.1948 240.946 37.5648L240.944 37.5767C240.893 37.9425 240.711 38.2904 240.409 38.5421C240.384 38.5639 240.353 38.5874 240.316 38.6135L234.36 42.8469C233.917 43.1617 233.399 43.3242 232.879 43.3331C232.359 43.3421 231.837 43.1972 231.383 42.8979L217.904 33.9963C217.666 33.8393 217.486 33.6338 217.363 33.4039C217.222 33.1389 217.159 32.8433 217.172 32.5527L217.173 32.5512C217.186 32.2592 217.277 31.9698 217.442 31.7196L217.458 31.6975C217.6 31.4905 217.793 31.3113 218.037 31.1817C219.117 30.6057 220.084 30.0981 221.051 29.591C221.949 29.1203 222.847 28.6488 223.862 28.1087C223.812 27.5066 223.763 27.0348 223.648 26.6467C223.546 26.3057 223.388 26.0136 223.118 25.7237C221.975 26.2826 221.289 26.0899 220.768 25.9433C220.661 25.913 220.562 25.8849 220.484 25.8726C220.429 25.8638 220.379 25.8431 220.336 25.8128C217.257 23.6915 214.947 21.8383 213.101 20.3568L212.076 19.5374C212.058 19.5224 212.041 19.5065 212.026 19.4889C211.625 19.0471 211.329 18.213 211.393 17.2973C211.442 16.5829 211.705 15.8113 212.298 15.1295C212.834 14.5137 213.456 14.1439 214.061 13.9475C214.848 13.6913 215.614 13.7321 216.127 13.9061C216.166 13.9194 216.202 13.9392 216.234 13.9639C217.56 15.0089 218.907 16.0825 220.263 17.1699C221.593 18.2359 222.913 19.3008 224.234 20.3653C224.262 20.3885 224.287 20.4147 224.306 20.4434C224.596 20.8105 224.863 21.2396 225.025 21.7491C225.177 22.2254 225.237 22.7664 225.14 23.3843C225.447 23.6945 225.732 24.0269 225.993 24.5423C226.242 25.0335 226.463 25.6861 226.648 26.6408L227.777 26.0457C228.313 25.7641 228.851 25.4816 229.337 25.2204C229.737 25.0059 230.184 24.9467 230.603 25.0277C231.023 25.1091 231.416 25.3316 231.705 25.6803ZM240.053 36.8492L231.153 26.1398C230.973 25.9238 230.729 25.7859 230.468 25.7353C230.206 25.6845 229.927 25.7214 229.679 25.8547C229.205 26.1086 228.658 26.3961 228.112 26.6829C227.574 26.966 227.036 27.2485 226.552 27.5085C226.517 27.5268 226.479 27.54 226.439 27.5466C226.243 27.5785 226.058 27.4454 226.026 27.2491C225.837 26.1015 225.609 25.3781 225.35 24.8664C225.101 24.3735 224.813 24.0698 224.5 23.763C224.416 23.6803 224.375 23.5584 224.4 23.4344C224.516 22.8678 224.473 22.3835 224.34 21.9665C224.21 21.5588 223.993 21.2076 223.754 20.9031C222.443 19.8464 221.132 18.7892 219.812 17.7309C218.525 16.6993 217.209 15.6507 215.838 14.5701C215.449 14.4537 214.881 14.4383 214.283 14.6327C213.792 14.7923 213.285 15.0955 212.843 15.6032C212.363 16.154 212.151 16.7735 212.112 17.3451C212.063 18.0505 212.267 18.6717 212.548 18.9923L213.552 19.796C215.378 21.2613 217.659 23.0918 220.682 25.1779C220.777 25.1972 220.867 25.2227 220.963 25.2498C221.398 25.3721 221.979 25.5355 223.012 24.9673C223.143 24.8952 223.312 24.9108 223.429 25.0181C223.915 25.4653 224.179 25.9057 224.338 26.4438C224.49 26.9541 224.539 27.5292 224.6 28.2864C224.609 28.4245 224.54 28.5624 224.409 28.6315C223.324 29.2103 222.354 29.7194 221.384 30.2283C220.428 30.7293 219.472 31.2309 218.374 31.8161C218.239 31.8884 218.131 31.9865 218.054 32.0991L218.042 32.1173C217.95 32.2575 217.899 32.4204 217.892 32.5851C217.884 32.751 217.919 32.9181 217.998 33.0656C218.065 33.192 218.166 33.3066 218.302 33.396L231.781 42.2976C232.11 42.5153 232.49 42.6206 232.867 42.6143C233.245 42.6078 233.62 42.4895 233.943 42.2605L239.899 38.027L239.949 37.9881C240.11 37.8557 240.206 37.6711 240.232 37.4773L240.232 37.4719C240.258 37.2758 240.212 37.0703 240.091 36.899L240.053 36.8492Z" fill="#008DD2"/>
    <path d="M237.091 18.1006C236.301 18.3653 235.702 18.6931 235.276 19.0342C234.702 19.4933 234.461 19.9489 234.51 20.2685L234.511 20.283L234.522 20.3191C234.565 20.4494 234.674 20.586 234.813 20.6868C234.94 20.7791 235.085 20.8349 235.21 20.8157L235.253 20.8055C235.647 20.6761 236.051 20.2886 236.403 19.7216C236.681 19.2748 236.919 18.723 237.091 18.1006ZM234.828 18.4732C235.423 17.9965 236.297 17.5476 237.476 17.2342C237.53 17.2172 237.589 17.213 237.65 17.2246C237.845 17.262 237.973 17.4508 237.935 17.646C237.752 18.6 237.421 19.4473 237.015 20.102C236.575 20.812 236.034 21.3076 235.479 21.4907C235.426 21.5082 235.371 21.521 235.317 21.5292C234.991 21.5792 234.659 21.4652 234.39 21.2702C234.133 21.0839 233.926 20.8151 233.837 20.5445C233.823 20.5034 233.812 20.4589 233.803 20.4114L233.796 20.3758C233.711 19.8215 234.033 19.1092 234.828 18.4732Z" fill="#008DD2"/>
    <path d="M241.823 25.1803C240.998 25.0773 240.316 25.114 239.783 25.2368C239.068 25.4022 238.654 25.7072 238.561 26.0152L238.554 26.0351L238.549 26.0648C238.531 26.2021 238.572 26.3736 238.654 26.5265C238.729 26.6645 238.835 26.7773 238.956 26.8138L238.998 26.8245C239.41 26.8782 239.943 26.704 240.505 26.345C240.947 26.0626 241.4 25.668 241.823 25.1803ZM239.622 24.5348C240.366 24.3628 241.352 24.3373 242.559 24.5681C242.61 24.5785 242.66 24.5996 242.705 24.6331C242.865 24.7512 242.898 24.9767 242.78 25.1362C242.204 25.9159 241.54 26.5367 240.891 26.9515C240.188 27.4004 239.487 27.6136 238.907 27.5377C238.857 27.5312 238.812 27.5221 238.77 27.5108L238.747 27.5047C238.43 27.4087 238.179 27.161 238.02 26.8678C237.87 26.589 237.799 26.2566 237.836 25.9733C237.842 25.93 237.85 25.887 237.861 25.8454L237.87 25.8064C238.033 25.268 238.631 24.7642 239.622 24.5348Z" fill="#008DD2"/>
    <path d="M222.561 20.9134C222.629 21.3698 222.433 22.0404 221.927 22.6583C221.539 23.131 220.967 23.581 220.191 23.885C220.107 23.9173 220.018 23.9029 219.951 23.8544C219.569 23.5776 218.629 22.852 217.554 22.0102C216.45 21.1454 215.214 20.166 214.305 19.4333C214.197 19.3463 214.179 19.1878 214.266 19.0792C214.305 19.0319 214.356 19.0019 214.411 18.9905C214.928 18.855 215.415 18.4888 215.785 18.0343C216.179 17.551 216.437 16.9747 216.454 16.4759C216.459 16.3369 216.576 16.2283 216.715 16.2331C216.773 16.2353 216.826 16.2569 216.867 16.2917C217.807 17.0284 218.738 17.776 219.67 18.5234C220.614 19.2815 221.559 20.0398 222.467 20.7516C222.52 20.793 222.552 20.8518 222.561 20.9134ZM221.538 22.3387C221.912 21.8821 222.081 21.4134 222.07 21.0803C221.16 20.3656 220.257 19.6406 219.354 18.9161C218.525 18.2512 217.697 17.5855 216.893 16.9518C216.779 17.431 216.522 17.9263 216.176 18.352C215.844 18.7586 215.427 19.1063 214.968 19.3204C215.839 20.0191 216.907 20.864 217.864 21.6136C218.83 22.3702 219.693 23.0368 220.134 23.3634C220.758 23.0964 221.221 22.7254 221.538 22.3387Z" fill="#008DD2"/>
    <path d="M223.737 21.8071C223.921 22.0916 223.975 22.5689 223.92 23.0216C223.866 23.4672 223.703 23.9073 223.451 24.1406C223.221 24.3543 223 24.5406 222.66 24.6509C222.332 24.7571 221.909 24.782 221.287 24.6721C221.149 24.6481 221.057 24.5173 221.081 24.38C221.098 24.2852 221.165 24.2121 221.25 24.1838C221.777 23.9653 222.182 23.7517 222.5 23.4199C222.823 23.0837 223.07 22.6122 223.284 21.8731C223.323 21.7398 223.462 21.663 223.596 21.7015C223.657 21.7191 223.706 21.7577 223.737 21.8071ZM223.419 22.9616L223.42 22.9466C223.258 23.2821 223.076 23.5476 222.863 23.769C222.695 23.9439 222.512 24.089 222.309 24.2179C222.38 24.2063 222.446 24.1907 222.506 24.1712C222.747 24.0931 222.923 23.943 223.11 23.7707C223.27 23.6234 223.377 23.3017 223.419 22.9616Z" fill="#008DD2"/>
    <path d="M215.25 17.6291L215.188 17.699C214.962 17.9449 214.58 18.2093 214.203 18.3704C213.771 18.5555 213.325 18.6101 213.049 18.3845L213.016 18.3557C212.764 18.1213 212.686 17.7213 212.755 17.2848C212.818 16.8764 213.011 16.4233 213.306 16.0533L213.319 16.0375C213.608 15.68 214.006 15.3593 214.397 15.1782C214.842 14.9732 215.291 14.9395 215.619 15.2003L215.633 15.2132C215.957 15.4861 215.963 15.9777 215.825 16.4685C215.703 16.9093 215.462 17.3639 215.257 17.6201L215.25 17.6291ZM214.828 17.3471L214.864 17.3047C215.034 17.0918 215.236 16.7096 215.34 16.3344C215.429 16.0171 215.45 15.7196 215.311 15.5999L215.305 15.5948C215.148 15.47 214.887 15.5073 214.608 15.6359C214.285 15.7855 213.953 16.0539 213.71 16.3545L213.7 16.3671C213.459 16.6698 213.303 17.0354 213.252 17.3618C213.209 17.6375 213.238 17.8725 213.356 17.9853L213.37 17.9967C213.48 18.0803 213.734 18.0233 214.006 17.907C214.321 17.772 214.636 17.5562 214.818 17.3593L214.828 17.3471Z" fill="#008DD2"/>
    <path d="M240.053 36.8492L231.152 26.1398C230.973 25.9238 230.729 25.786 230.468 25.7353C230.206 25.6846 229.927 25.7214 229.678 25.8547C229.205 26.1086 228.658 26.3962 228.112 26.683C227.574 26.966 227.036 27.2485 226.552 27.5086C226.376 27.6026 226.158 27.5371 226.064 27.362C226.042 27.3217 226.029 27.2788 226.024 27.2358C225.835 26.0959 225.608 25.376 225.35 24.8664C225.1 24.3736 224.813 24.0698 224.5 23.763C224.407 23.6713 224.374 23.5414 224.402 23.4228C224.516 22.8612 224.472 22.3806 224.34 21.9665C224.21 21.5588 223.993 21.2076 223.754 20.903C221.156 18.8082 218.557 16.7125 215.838 14.5702C215.449 14.4538 214.881 14.4383 214.283 14.6327C213.792 14.7923 213.285 15.0955 212.842 15.6032C212.363 16.154 212.151 16.7735 212.111 17.3449C212.062 18.0508 212.266 18.6719 212.548 18.9923L213.552 19.7956C215.378 21.2609 217.659 23.0911 220.682 25.1779C220.776 25.1972 220.867 25.2229 220.962 25.2498C221.398 25.3721 221.979 25.5355 223.011 24.9673C223.154 24.8887 223.327 24.9176 223.438 25.0268C223.918 25.471 224.18 25.9093 224.338 26.4438C224.49 26.9542 224.538 27.5292 224.599 28.2864C224.612 28.4441 224.521 28.5862 224.383 28.6456C223.312 29.2168 222.351 29.7204 221.392 30.2237C220.433 30.7264 219.475 31.2293 218.374 31.8161C218.233 31.8913 218.122 31.9963 218.042 32.1172C217.949 32.2573 217.899 32.4198 217.891 32.5836C217.884 32.75 217.918 32.9177 217.997 33.0656C218.065 33.192 218.166 33.3066 218.301 33.396L231.78 42.2976C232.11 42.5153 232.49 42.6206 232.867 42.6143C233.244 42.6078 233.62 42.4895 233.943 42.2605L239.899 38.027L239.965 37.9754C240.117 37.8424 240.207 37.6613 240.232 37.4719C240.257 37.2758 240.212 37.0705 240.091 36.899L240.053 36.8492ZM231.705 25.6804L240.605 36.3898C240.633 36.4229 240.657 36.4537 240.677 36.482C240.907 36.8068 240.994 37.1948 240.945 37.565C240.898 37.9252 240.724 38.2698 240.431 38.5226L240.41 38.5421C240.383 38.5643 240.351 38.5883 240.316 38.6135L234.36 42.847C233.917 43.1617 233.399 43.3242 232.879 43.3331C232.359 43.3421 231.836 43.1972 231.383 42.898L217.904 33.9964C217.666 33.8393 217.486 33.6338 217.363 33.4039C217.222 33.139 217.158 32.8432 217.172 32.5528C217.186 32.2596 217.277 31.9697 217.442 31.7196C217.584 31.5041 217.783 31.3168 218.036 31.1818C219.12 30.6037 220.09 30.095 221.059 29.5867C221.954 29.1172 222.85 28.6474 223.862 28.1089C223.811 27.5066 223.763 27.0348 223.648 26.6467C223.546 26.3057 223.387 26.0136 223.118 25.7237C221.975 26.2826 221.289 26.0899 220.768 25.9433C220.664 25.9141 220.568 25.8868 220.492 25.874C220.438 25.8666 220.384 25.8468 220.336 25.8134C217.256 23.6914 214.947 21.8381 213.101 20.3566C212.761 20.0843 212.438 19.8252 212.076 19.5374C212.062 19.526 212.048 19.5133 212.035 19.4994C211.63 19.0602 211.329 18.2198 211.392 17.297C211.442 16.5827 211.705 15.8113 212.298 15.1295C212.834 14.5138 213.456 14.1439 214.06 13.9475C214.84 13.694 215.598 13.7312 216.11 13.9007C216.153 13.9129 216.195 13.9339 216.234 13.9638C218.911 16.0734 221.561 18.2105 224.211 20.347L224.235 20.3668C224.254 20.3831 224.272 20.4012 224.288 20.4218C224.585 20.7936 224.859 21.2294 225.025 21.7492C225.177 22.2254 225.237 22.7664 225.14 23.3843C225.447 23.6945 225.732 24.0269 225.993 24.5423C226.242 25.0336 226.462 25.6861 226.648 26.6408L227.777 26.0458C228.313 25.7641 228.851 25.4816 229.337 25.2204C229.737 25.006 230.184 24.9467 230.603 25.0277C231.023 25.1092 231.416 25.3316 231.705 25.6804Z" fill="#008DD2"/>
    <path d="M225.837 31.4845C225.185 30.5058 224.532 29.5267 224.577 28.6807C224.593 28.3795 224.661 28.1041 224.813 27.891C224.978 27.6597 225.229 27.5103 225.594 27.4879C225.7 27.4817 225.861 27.4969 226.02 27.5451C226.146 27.5837 226.276 27.6439 226.384 27.7316C226.475 27.8055 226.55 27.8943 226.609 27.9915C226.67 28.0917 226.716 28.2026 226.746 28.3181C226.807 28.5542 226.928 28.8599 227.082 29.1711C227.225 29.4614 227.397 29.7535 227.576 29.9946C227.764 30.246 227.973 30.473 228.206 30.6893C228.442 30.9078 228.708 31.1203 229.003 31.3394C229.17 31.4622 229.331 31.6011 229.456 31.7594C229.596 31.9358 229.69 32.1348 229.698 32.3595C229.702 32.4677 229.689 32.5723 229.66 32.6706C229.631 32.7727 229.584 32.8679 229.525 32.9533C229.394 33.141 229.197 33.2819 228.965 33.3541C228.752 33.4201 228.508 33.4289 228.258 33.3631L228.238 33.357C227.547 33.113 226.712 32.3219 225.876 31.5311L225.874 31.5284C225.86 31.5149 225.847 31.5002 225.837 31.4845ZM225.08 28.7065C225.045 29.3802 225.641 30.281 226.242 31.1834C227.028 31.9279 227.812 32.6681 228.398 32.8789C228.55 32.9165 228.693 32.9112 228.817 32.8729C228.942 32.8339 229.046 32.7611 229.113 32.6652C229.141 32.6247 229.163 32.5796 229.177 32.5307C229.191 32.484 229.197 32.4323 229.195 32.3773C229.191 32.2725 229.139 32.1692 229.061 32.0713C228.969 31.955 228.84 31.8449 228.704 31.7441C228.399 31.518 228.12 31.2949 227.865 31.0583C227.607 30.8191 227.377 30.5695 227.172 30.2946C226.974 30.0281 226.785 29.709 226.63 29.3937C226.462 29.0544 226.329 28.7144 226.258 28.4443C226.241 28.3767 226.214 28.3119 226.179 28.2541C226.149 28.2035 226.111 28.1582 226.066 28.1225C226.013 28.0793 225.944 28.0476 225.874 28.0263C225.777 27.9971 225.684 27.9875 225.624 27.9912C225.429 28.0028 225.301 28.0741 225.224 28.1828C225.133 28.3095 225.091 28.4947 225.08 28.7065Z" fill="#008DD2"/>
    <path d="M229.626 17.8566C229.895 17.5396 230.039 16.9973 230.044 16.3302C230.047 15.8038 229.963 15.2081 229.785 14.5872C229.25 15.2257 228.91 15.8192 228.724 16.334C228.474 17.027 228.504 17.5416 228.711 17.787C228.722 17.7997 228.735 17.8124 228.749 17.8247C228.853 17.9128 229.017 17.9718 229.188 17.9849C229.346 17.997 229.498 17.9699 229.593 17.8891L229.626 17.8566ZM230.762 16.3332C230.756 17.1694 230.554 17.8751 230.176 18.3215C230.14 18.3644 230.1 18.4038 230.058 18.4388C229.806 18.6523 229.463 18.7292 229.134 18.7036C228.818 18.6794 228.501 18.5584 228.284 18.3743C228.24 18.3365 228.198 18.2953 228.162 18.252C227.799 17.8226 227.702 17.046 228.048 16.0888C228.308 15.3686 228.822 14.5252 229.671 13.6364C229.707 13.5984 229.753 13.5673 229.806 13.5478C229.992 13.4786 230.199 13.5732 230.268 13.7592C230.608 14.6681 230.768 15.563 230.762 16.3332Z" fill="#008DD2"/>
    <path d="M203.197 16.4634C203.901 16.4634 204.539 16.75 205.002 17.2138C205.464 17.6768 205.75 18.3163 205.75 19.0219C205.75 19.7275 205.464 20.3668 205.002 20.8297C204.539 21.2932 203.901 21.5801 203.197 21.5801C202.492 21.5801 201.854 21.2932 201.391 20.8297C200.93 20.3668 200.644 19.7275 200.644 19.0219C200.644 18.3163 200.93 17.6766 201.392 17.2138C201.854 16.75 202.492 16.4634 203.197 16.4634ZM204.645 17.5688C204.275 17.198 203.763 16.9685 203.197 16.9685C202.631 16.9685 202.118 17.198 201.749 17.5688C201.378 17.9404 201.149 18.4542 201.149 19.0219C201.149 19.5894 201.378 20.1032 201.749 20.4745C202.119 20.8453 202.631 21.0749 203.197 21.0749C203.763 21.0749 204.275 20.8453 204.645 20.4748C205.015 20.1035 205.244 19.5894 205.244 19.0219C205.244 18.4542 205.015 17.9401 204.645 17.5688Z" fill="#008DD2"/>
    <path d="M204.031 19.7197C204.119 19.6132 204.278 19.5985 204.385 19.6873C204.491 19.776 204.506 19.9348 204.417 20.0414C204.266 20.2229 204.079 20.3664 203.87 20.4641C203.661 20.5624 203.431 20.6153 203.197 20.6153C202.758 20.6153 202.361 20.4364 202.072 20.1474C201.785 19.8592 201.606 19.461 201.606 19.0217C201.606 18.5826 201.785 18.1842 202.072 17.8962C202.361 17.607 202.758 17.4283 203.197 17.4283C203.472 17.4283 203.739 17.5003 203.972 17.6314C204.205 17.7618 204.406 17.9518 204.551 18.188C204.623 18.3065 204.586 18.4618 204.467 18.5342C204.349 18.6067 204.194 18.569 204.121 18.4502C204.023 18.29 203.885 18.1607 203.726 18.0714C203.567 17.9826 203.385 17.9334 203.197 17.9334C202.896 17.9334 202.625 18.0548 202.429 18.2512C202.233 18.448 202.112 18.7205 202.112 19.0217C202.112 19.3231 202.233 19.5958 202.429 19.7922C202.625 19.9885 202.896 20.1102 203.197 20.1102C203.359 20.1102 203.516 20.0743 203.657 20.0083C203.799 19.9414 203.928 19.8436 204.031 19.7197Z" fill="#008DD2"/>
</svg>
