<svg xmlns="http://www.w3.org/2000/svg" width="49" height="40" viewBox="0 0 49 40">
  <path d="M7.32992 18.2703C7.32992 18.2703 19.3299 13.3455 23.4918 11.6114C25.0871 10.9177 30.4976 8.69806 30.4976 8.69806C30.4976 8.69806 32.9947 7.72696 32.7866 10.0853C32.7172 11.0564 32.1623 14.4553 31.6074 18.1316C30.775 23.3339 29.8733 29.0218 29.8733 29.0218C29.8733 29.0218 29.7345 30.6171 28.5554 30.8946C27.3762 31.1721 25.434 29.9235 25.0871 29.646C24.8097 29.4379 19.8848 26.3166 18.0814 24.7905C17.5958 24.3744 17.0409 23.542 18.1507 22.5709C20.6478 20.2819 23.6305 17.4379 25.434 15.6345C26.2663 14.8021 27.0987 12.8599 23.6305 15.2183C18.7056 18.6171 13.8502 21.8079 13.8502 21.8079C13.8502 21.8079 12.7403 22.5015 10.6594 21.8773C8.57848 21.253 6.15073 20.4206 6.15073 20.4206C6.15073 20.4206 4.48599 19.3801 7.32992 18.2703Z" fill="#006496"/>
</svg>
