<svg xmlns="http://www.w3.org/2000/svg" width="18" height="18" viewBox="0 0 18 18" fill="none">
    <mask id="mask0_54933_652" style="mask-type:alpha" maskUnits="userSpaceOnUse" x="0" y="0" width="18" height="18">
        <rect width="18" height="18" fill="#D9D9D9"/>
    </mask>
    <g mask="url(#mask0_54933_652)">
        <path d="M10.5 7.425V6.15C10.9125 5.975 11.3344 5.84375 11.7656 5.75625C12.1969 5.66875 12.65 5.625 13.125 5.625C13.45 5.625 13.7688 5.65 14.0812 5.7C14.3937 5.75 14.7 5.8125 15 5.8875V7.0875C14.7 6.975 14.3969 6.89063 14.0906 6.83438C13.7844 6.77813 13.4625 6.75 13.125 6.75C12.65 6.75 12.1938 6.80938 11.7563 6.92813C11.3188 7.04688 10.9 7.2125 10.5 7.425ZM10.5 11.55V10.275C10.9125 10.1 11.3344 9.96875 11.7656 9.88125C12.1969 9.79375 12.65 9.75 13.125 9.75C13.45 9.75 13.7688 9.775 14.0812 9.825C14.3937 9.875 14.7 9.9375 15 10.0125V11.2125C14.7 11.1 14.3969 11.0156 14.0906 10.9594C13.7844 10.9031 13.4625 10.875 13.125 10.875C12.65 10.875 12.1938 10.9313 11.7563 11.0438C11.3188 11.1562 10.9 11.325 10.5 11.55ZM10.5 9.4875V8.2125C10.9125 8.0375 11.3344 7.90625 11.7656 7.81875C12.1969 7.73125 12.65 7.6875 13.125 7.6875C13.45 7.6875 13.7688 7.7125 14.0812 7.7625C14.3937 7.8125 14.7 7.875 15 7.95V9.15C14.7 9.0375 14.3969 8.95312 14.0906 8.89688C13.7844 8.84063 13.4625 8.8125 13.125 8.8125C12.65 8.8125 12.1938 8.87188 11.7563 8.99063C11.3188 9.10938 10.9 9.275 10.5 9.4875ZM4.875 12C5.4625 12 6.03437 12.0656 6.59062 12.1969C7.14687 12.3281 7.7 12.525 8.25 12.7875V5.4C7.7375 5.1 7.19375 4.875 6.61875 4.725C6.04375 4.575 5.4625 4.5 4.875 4.5C4.425 4.5 3.97813 4.54375 3.53438 4.63125C3.09063 4.71875 2.6625 4.85 2.25 5.025V12.45C2.6875 12.3 3.12188 12.1875 3.55312 12.1125C3.98438 12.0375 4.425 12 4.875 12ZM9.75 12.7875C10.3 12.525 10.8531 12.3281 11.4094 12.1969C11.9656 12.0656 12.5375 12 13.125 12C13.575 12 14.0156 12.0375 14.4469 12.1125C14.8781 12.1875 15.3125 12.3 15.75 12.45V5.025C15.3375 4.85 14.9094 4.71875 14.4656 4.63125C14.0219 4.54375 13.575 4.5 13.125 4.5C12.5375 4.5 11.9563 4.575 11.3813 4.725C10.8063 4.875 10.2625 5.1 9.75 5.4V12.7875ZM9 15C8.4 14.525 7.75 14.1562 7.05 13.8938C6.35 13.6313 5.625 13.5 4.875 13.5C4.35 13.5 3.83437 13.5688 3.32812 13.7063C2.82188 13.8438 2.3375 14.0375 1.875 14.2875C1.6125 14.425 1.35938 14.4188 1.11563 14.2688C0.871875 14.1188 0.75 13.9 0.75 13.6125V4.575C0.75 4.4375 0.784375 4.30625 0.853125 4.18125C0.921875 4.05625 1.025 3.9625 1.1625 3.9C1.7375 3.6 2.3375 3.375 2.9625 3.225C3.5875 3.075 4.225 3 4.875 3C5.6 3 6.30938 3.09375 7.00313 3.28125C7.69688 3.46875 8.3625 3.75 9 4.125C9.6375 3.75 10.3031 3.46875 10.9969 3.28125C11.6906 3.09375 12.4 3 13.125 3C13.775 3 14.4125 3.075 15.0375 3.225C15.6625 3.375 16.2625 3.6 16.8375 3.9C16.975 3.9625 17.0781 4.05625 17.1469 4.18125C17.2156 4.30625 17.25 4.4375 17.25 4.575V13.6125C17.25 13.9 17.1281 14.1188 16.8844 14.2688C16.6406 14.4188 16.3875 14.425 16.125 14.2875C15.6625 14.0375 15.1781 13.8438 14.6719 13.7063C14.1656 13.5688 13.65 13.5 13.125 13.5C12.375 13.5 11.65 13.6313 10.95 13.8938C10.25 14.1562 9.6 14.525 9 15Z" fill="white"/>
    </g>
</svg>
