<svg xmlns="http://www.w3.org/2000/svg" width="175" height="42" viewBox="0 0 175 42" fill="none">
    <path d="M4.81738 21.6808C4.81738 16.25 7.26111 13.5347 12.1483 13.5347C13.1576 13.5347 14.0508 13.6623 14.8367 13.9139C15.6184 14.1693 16.2627 14.5261 16.765 14.9918C17.2719 15.4538 17.6671 15.9833 17.9546 16.5768C18.2467 17.1739 18.4315 17.8387 18.513 18.5748C18.513 18.601 18.513 18.6311 18.513 18.6612C18.513 18.9429 18.3672 19.172 18.0747 19.3484C17.7485 19.5362 17.3448 19.6339 16.8637 19.6414C16.8124 19.6414 16.765 19.6414 16.7137 19.6414C16.2584 19.6414 15.8976 19.5776 15.6313 19.4537C15.3265 19.3147 15.1289 19.0556 15.0387 18.6761C14.8283 17.8124 14.5019 17.1776 14.0595 16.7758C13.6214 16.374 12.9298 16.1711 11.9896 16.1711C11.4656 16.1711 11.0019 16.25 10.5894 16.404C10.1773 16.558 9.84655 16.7758 9.589 17.065C9.33087 17.3505 9.11642 17.6622 8.94027 17.9965C8.76438 18.3307 8.63098 18.7175 8.54942 19.1645C8.46374 19.6077 8.40754 20.0208 8.3731 20.4076C8.339 20.7945 8.32178 21.2189 8.32178 21.6808C8.32178 22.233 8.34337 22.7363 8.39066 23.1943C8.43787 23.6564 8.53632 24.1408 8.69541 24.6553C8.85014 25.1699 9.05207 25.6019 9.30525 25.9549C9.57153 26.3005 9.93668 26.5896 10.3873 26.8262C10.8343 27.0554 11.3495 27.1679 11.9379 27.1679C11.9551 27.1679 11.9723 27.1679 11.9896 27.1679C12.4748 27.1679 12.8999 27.1041 13.2605 26.9727C13.6214 26.845 13.9177 26.6535 14.1494 26.3942C14.3815 26.1351 14.562 25.8761 14.6995 25.6094C14.8326 25.3427 14.9614 25.016 15.0859 24.6254C15.1978 24.2948 15.3995 24.0507 15.6914 23.9005C15.988 23.7502 16.3957 23.6677 16.9154 23.6526C17.5467 23.6526 18.002 23.7578 18.2896 23.9718C18.5003 24.1258 18.6031 24.3475 18.6031 24.6405C18.6031 24.7456 18.5904 24.8581 18.5645 24.9823C18.4571 25.4853 18.2984 25.9661 18.0878 26.4168C17.8774 26.8676 17.5939 27.3032 17.2332 27.7239C16.8726 28.1445 16.4516 28.505 15.9749 28.8093C15.4982 29.1136 14.9141 29.3577 14.2313 29.5341C13.5483 29.7145 12.8054 29.8045 11.998 29.8045C7.20945 29.8045 4.81738 27.0966 4.81738 21.6808ZM20.9397 27.5774V15.773C20.9397 15.3712 21.0082 15.0293 21.1457 14.7552C21.2873 14.481 21.4805 14.2744 21.7342 14.1392C21.9831 14.0041 22.245 13.9101 22.52 13.8576C22.7904 13.8088 23.1083 13.7824 23.4691 13.7824H30.5509C31.2723 13.7824 31.6332 14.2331 31.6332 15.1346C31.6332 16.0359 31.2723 16.4865 30.555 16.4865H24.8174C24.6585 16.4865 24.5512 16.5129 24.4867 16.5692C24.4223 16.6254 24.3924 16.7232 24.3924 16.8697V20.047H29.5803C30.2974 20.047 30.6537 20.4978 30.6537 21.3991C30.6537 22.3006 30.2974 22.7511 29.5803 22.7511H24.3924V26.4657C24.3924 26.6121 24.4223 26.7136 24.4867 26.7699C24.5512 26.8262 24.6585 26.8525 24.8174 26.8525H30.555C31.2723 26.8525 31.6332 27.3032 31.6332 28.2046C31.6332 29.1059 31.2723 29.5567 30.5509 29.5567H23.4691C23.1083 29.5567 22.7904 29.5305 22.52 29.4816C22.245 29.429 21.9831 29.3351 21.7342 29.2036C21.4805 29.0722 21.2873 28.8695 21.1457 28.5953C21.0082 28.3211 20.9397 27.9793 20.9397 27.5774ZM34.2014 28.7041V15.773C34.2014 15.3712 34.2701 15.0331 34.4032 14.7552C34.5363 14.481 34.7296 14.2744 34.9827 14.1392C35.2319 14.0041 35.4982 13.9101 35.7731 13.8613C36.0524 13.8088 36.3701 13.7824 36.7307 13.7824H41.2617C42.8463 13.7824 44.1563 14.2145 45.1826 15.0782C46.209 15.9458 46.7241 17.0876 46.7241 18.511C46.7241 19.5176 46.4279 20.3776 45.8309 21.0911C45.234 21.8086 44.4824 22.3156 43.5849 22.616C44.358 23.1006 45.0281 23.8817 45.5907 24.9635C45.6808 25.1511 45.8183 25.4291 45.9942 25.7859C46.1703 26.1465 46.3122 26.4394 46.4235 26.6609C46.5311 26.8862 46.6728 27.1493 46.8489 27.4497C47.0249 27.7502 47.2012 28.0244 47.3773 28.2759C47.5361 28.4862 47.6175 28.6779 47.6175 28.8469C47.6262 29.0385 47.5273 29.2075 47.3299 29.3539C46.9605 29.6244 46.4753 29.7595 45.8783 29.7595C44.9463 29.7595 44.3149 29.5643 43.9887 29.1774C43.7525 28.9031 43.529 28.5613 43.3102 28.1408C43.0909 27.7239 42.8463 27.1982 42.5801 26.5672C42.3094 25.9361 42.1034 25.4779 41.9618 25.1925C41.6351 24.5615 41.2573 24.0733 40.8235 23.7239C40.3941 23.3747 39.8358 23.2019 39.1487 23.2019H37.6027V28.7041C37.6027 29.4065 37.0358 29.7595 35.9018 29.7595C34.7683 29.7595 34.2014 29.4065 34.2014 28.7041ZM37.6027 20.633H40.9053C41.6009 20.633 42.1462 20.4339 42.5456 20.0395C42.9451 19.6414 43.1426 19.1344 43.1426 18.511C43.1426 17.8724 42.9494 17.3767 42.5629 17.0199C42.1807 16.6631 41.6269 16.4865 40.9053 16.4865H38.0406C37.8903 16.4865 37.7784 16.5129 37.7099 16.5692C37.6371 16.6254 37.6027 16.7232 37.6027 16.8697V20.633ZM48.644 29.1172C48.627 29.0722 48.6183 29.0272 48.6183 28.9745C48.6183 28.8806 48.6484 28.7718 48.704 28.6553L54.0338 14.6801C54.1884 14.297 54.4458 14.0153 54.8027 13.8313C55.1635 13.6472 55.5756 13.5571 56.0436 13.5571C56.5119 13.5571 56.9284 13.6472 57.2935 13.8275C57.6541 14.0078 57.9116 14.2858 58.0667 14.6613L63.396 28.6365C63.452 28.7567 63.4821 28.8656 63.4821 28.9634C63.4821 29.0159 63.4734 29.0647 63.4562 29.1098C63.4091 29.2449 63.3403 29.35 63.2544 29.429C63.1685 29.5079 63.0353 29.5679 62.8592 29.6092C62.6789 29.6506 62.5114 29.6769 62.3526 29.6919C62.1978 29.7069 62.0175 29.7145 61.8243 29.7145C61.3131 29.7145 60.901 29.6468 60.5917 29.5116C60.2783 29.3726 60.0377 29.0873 59.8659 28.6553L58.8525 25.9512H53.1663L52.1484 28.6478C51.9853 29.0835 51.749 29.3726 51.444 29.5079C51.1392 29.6468 50.7399 29.7145 50.2416 29.7145C50.0486 29.7145 49.8767 29.7069 49.7219 29.6919C49.5674 29.6769 49.4042 29.6506 49.2281 29.6092C49.0564 29.5679 48.9277 29.5116 48.8415 29.4328C48.7601 29.3539 48.6914 29.2487 48.644 29.1172ZM54.1583 23.3146H57.8561L56.6192 20.0282C56.3187 19.2584 56.1125 18.5336 56.0006 17.8576C55.8805 18.5748 55.683 19.2959 55.3996 20.0208L54.1583 23.3146ZM65.4661 28.7041V14.7476C65.4661 14.3759 65.6208 14.1016 65.9297 13.929C66.2391 13.7562 66.6299 13.6698 67.1024 13.6698C67.7509 13.6698 68.2318 13.8727 68.5496 14.2744C68.6827 14.4434 69.1122 15.1271 69.8337 16.3288C70.5551 17.5269 71.2424 18.6838 71.8994 19.7991L72.8786 21.4706C75.4726 17.05 76.9027 14.65 77.1819 14.2744C77.4997 13.8727 77.9893 13.6698 78.6505 13.6698C79.1232 13.6698 79.5094 13.7524 79.8101 13.9214C80.1064 14.0904 80.2568 14.3683 80.2568 14.7476V28.7041C80.2568 29.0835 80.0978 29.3577 79.7844 29.5192C79.4664 29.6806 79.0715 29.7595 78.5992 29.7595C78.131 29.7595 77.7272 29.6806 77.4009 29.5192C77.0701 29.3577 76.9071 29.0835 76.9071 28.7041V19.5776C76.7826 19.9307 76.469 20.5766 75.9663 21.5156L73.9821 24.9409C73.7847 25.2827 73.4156 25.4554 72.8786 25.4554C72.3289 25.4554 71.9509 25.2827 71.7534 24.9409L69.7949 21.5156C69.3354 20.7231 69.0093 20.0771 68.8159 19.5776V28.7041C68.8159 29.0835 68.6528 29.3577 68.3263 29.5192C68 29.6806 67.6006 29.7595 67.128 29.7595C66.6557 29.7595 66.2607 29.6806 65.9428 29.5192C65.6251 29.3577 65.4661 29.0835 65.4661 28.7041ZM83.5894 28.7041V14.7251C83.5894 14.0377 84.1606 13.6923 85.2986 13.6923C86.4623 13.6923 87.0425 14.0377 87.0425 14.7251V28.7041C87.0425 29.4065 86.4623 29.7595 85.2986 29.7595C84.1606 29.7595 83.5894 29.4065 83.5894 28.7041ZM89.5849 21.6808C89.5849 16.25 92.0285 13.5347 96.9158 13.5347C97.9247 13.5347 98.8182 13.6623 99.604 13.9139C100.386 14.1693 101.03 14.5261 101.533 14.9918C102.039 15.4538 102.434 15.9833 102.722 16.5768C103.014 17.1739 103.199 17.8387 103.28 18.5748C103.28 18.601 103.28 18.6311 103.28 18.6612C103.28 18.9429 103.134 19.172 102.842 19.3484C102.516 19.5362 102.112 19.6339 101.631 19.6414C101.579 19.6414 101.533 19.6414 101.481 19.6414C101.026 19.6414 100.665 19.5776 100.399 19.4537C100.094 19.3147 99.896 19.0556 99.806 18.6761C99.5953 17.8124 99.2691 17.1776 98.8267 16.7758C98.3888 16.374 97.6973 16.1711 96.7567 16.1711C96.2326 16.1711 95.7691 16.25 95.3568 16.404C94.9443 16.558 94.6135 16.7758 94.356 17.065C94.0984 17.3505 93.8836 17.6622 93.7077 17.9965C93.5314 18.3307 93.3982 18.7175 93.3169 19.1645C93.2307 19.6077 93.175 20.0208 93.1406 20.4076C93.1063 20.7945 93.0891 21.2189 93.0891 21.6808C93.0891 22.233 93.1107 22.7363 93.1578 23.1943C93.2052 23.6564 93.3037 24.1408 93.4628 24.6553C93.6173 25.1699 93.819 25.6019 94.0727 25.9549C94.339 26.3005 94.7038 26.5896 95.1548 26.8262C95.6012 27.0554 96.117 27.1679 96.7052 27.1679C96.7221 27.1679 96.7395 27.1679 96.7567 27.1679C97.2422 27.1679 97.6674 27.1041 98.028 26.9727C98.3888 26.845 98.685 26.6535 98.9169 26.3942C99.1489 26.1351 99.3291 25.8761 99.4665 25.6094C99.5996 25.3427 99.7284 25.016 99.8531 24.6254C99.9648 24.2948 100.167 24.0507 100.459 23.9005C100.755 23.7502 101.163 23.6677 101.683 23.6526C102.314 23.6526 102.769 23.7578 103.057 23.9718C103.267 24.1258 103.37 24.3475 103.37 24.6405C103.37 24.7456 103.357 24.8581 103.332 24.9823C103.224 25.4853 103.066 25.9661 102.855 26.4168C102.645 26.8676 102.361 27.3032 102 27.7239C101.64 28.1445 101.219 28.505 100.742 28.8093C100.265 29.1136 99.6814 29.3577 98.9985 29.5341C98.3157 29.7145 97.5729 29.8045 96.7653 29.8045C91.9768 29.8045 89.5849 27.0966 89.5849 21.6808Z" fill="#3C3B3B"/>
    <path d="M112.079 26.9125C111.869 26.5256 111.843 26.1688 111.998 25.8496C112.152 25.5266 112.457 25.2825 112.908 25.1209C113.32 24.9633 113.716 24.9219 114.097 25.0008C114.48 25.0834 114.772 25.2861 114.974 25.6167C115.253 26.1914 115.605 26.6045 116.026 26.8562C116.451 27.1077 116.992 27.2355 117.649 27.2355C118.427 27.2355 119.058 26.9876 119.543 26.4882C120.028 25.9885 120.269 25.365 120.269 24.6177C120.269 24.1333 120.187 23.7125 120.02 23.3557C119.852 23.0027 119.642 22.721 119.393 22.5219C119.139 22.3192 118.822 22.1615 118.435 22.0413C118.053 21.9248 117.688 21.8497 117.34 21.812C116.992 21.7746 116.593 21.7558 116.15 21.7558C115.875 21.7558 115.635 21.6844 115.429 21.5379C115.223 21.3878 115.068 21.1811 114.974 20.9107C114.72 20.3286 114.819 19.8104 115.262 19.3482L117.215 17.324C117.533 16.986 117.829 16.708 118.104 16.4864H113.518C112.882 16.4864 112.564 16.0358 112.564 15.1345C112.564 14.233 112.891 13.7822 113.544 13.7822H121.574C122.24 13.7822 122.545 14.233 122.485 15.1345C122.468 15.5588 122.24 15.9645 121.802 16.355L118.671 19.3034C118.624 19.3482 118.615 19.4009 118.641 19.4686C118.667 19.5324 118.719 19.5699 118.792 19.5775C120.192 19.7165 121.355 20.2197 122.279 21.091C123.206 21.9586 123.67 23.0515 123.67 24.3736C123.662 25.4515 123.395 26.4016 122.867 27.2317C122.335 28.0579 121.613 28.6965 120.698 29.1396C119.779 29.5829 118.744 29.8044 117.58 29.8044C116.404 29.8044 115.321 29.5678 114.334 29.0909C113.342 28.6138 112.59 27.889 112.079 26.9125ZM127.428 27.5547V15.7729C127.428 15.371 127.497 15.0291 127.63 14.755C127.763 14.4809 127.956 14.2742 128.21 14.1391C128.459 14.0039 128.725 13.91 129 13.8575C129.279 13.8086 129.597 13.7822 129.957 13.7822H133.505C134.493 13.7822 135.386 13.9212 136.189 14.1991C136.988 14.4809 137.662 14.864 138.212 15.3522C138.761 15.8405 139.221 16.4188 139.59 17.0911C139.96 17.7635 140.226 18.4808 140.393 19.2432C140.561 20.0094 140.647 20.8206 140.647 21.6807C140.647 22.5407 140.565 23.3519 140.402 24.1107C140.239 24.873 139.973 25.5904 139.603 26.2627C139.234 26.9351 138.779 27.5135 138.238 27.9978C137.696 28.4824 137.022 28.8617 136.215 29.1396C135.403 29.4176 134.501 29.5565 133.505 29.5565H129.957C129.588 29.5565 129.27 29.5303 129 29.4814C128.733 29.4288 128.472 29.3349 128.214 29.2035C127.961 29.0721 127.763 28.8654 127.63 28.5876C127.497 28.3096 127.428 27.9641 127.428 27.5547ZM130.829 26.4656C130.829 26.612 130.864 26.7134 130.937 26.7697C131.006 26.826 131.117 26.8524 131.268 26.8524H133.509C134.063 26.8524 134.553 26.7435 134.987 26.5218C135.416 26.3003 135.764 26.0186 136.03 25.6732C136.292 25.3275 136.511 24.9219 136.683 24.4525C136.855 23.9867 136.975 23.5286 137.044 23.0741C137.108 22.6233 137.143 22.1577 137.143 21.6807C137.143 21.2113 137.108 20.7455 137.035 20.2874C136.966 19.8253 136.842 19.3634 136.666 18.8977C136.49 18.4281 136.266 18.0226 136.004 17.6732C135.738 17.324 135.39 17.0384 134.961 16.817C134.527 16.5955 134.046 16.4864 133.509 16.4864H131.268C131.117 16.4864 131.006 16.5127 130.937 16.569C130.864 16.6253 130.829 16.7268 130.829 16.8733V26.4656Z" fill="#008DD2"/>
    <path d="M162.193 17.9762L168.423 25.4728C168.442 25.4959 168.459 25.5175 168.473 25.5374C168.635 25.7645 168.695 26.0363 168.661 26.2953L168.66 26.3036C168.624 26.5597 168.497 26.8032 168.285 26.9794C168.268 26.9947 168.246 27.0111 168.221 27.0294L164.051 29.9928C163.741 30.2131 163.379 30.3269 163.014 30.3331C162.651 30.3394 162.285 30.238 161.967 30.0285L152.532 23.7974C152.366 23.6874 152.239 23.5436 152.154 23.3827C152.055 23.1972 152.01 22.9902 152.02 22.7869L152.02 22.7858C152.03 22.5814 152.093 22.3788 152.209 22.2036L152.22 22.1882C152.319 22.0433 152.455 21.9179 152.625 21.8272C153.381 21.424 154.058 21.0686 154.735 20.7137C155.363 20.3841 155.992 20.0541 156.703 19.676C156.667 19.2546 156.633 18.9243 156.553 18.6526C156.482 18.4139 156.371 18.2094 156.182 18.0065C155.382 18.3978 154.902 18.2629 154.537 18.1602C154.462 18.1391 154.392 18.1194 154.338 18.1107C154.3 18.1046 154.264 18.0901 154.234 18.0689C152.079 16.584 150.462 15.2867 149.17 14.2497L148.453 13.6761C148.44 13.6656 148.428 13.6545 148.417 13.6422C148.137 13.3329 147.93 12.749 147.974 12.108C148.009 11.608 148.193 11.0678 148.608 10.5906C148.983 10.1596 149.418 9.90067 149.842 9.76316C150.393 9.58382 150.929 9.61238 151.288 9.73418C151.316 9.7435 151.341 9.75736 151.363 9.77467C152.291 10.5061 153.234 11.2577 154.184 12.0189C155.114 12.7651 156.039 13.5105 156.963 14.2556C156.983 14.2719 157 14.2903 157.013 14.3103C157.217 14.5673 157.403 14.8677 157.517 15.2243C157.623 15.5577 157.665 15.9364 157.597 16.3689C157.812 16.5861 158.012 16.8187 158.195 17.1795C158.369 17.5234 158.523 17.9802 158.653 18.6485L159.443 18.232C159.819 18.0348 160.195 17.8371 160.535 17.6542C160.815 17.5041 161.128 17.4626 161.422 17.5193C161.715 17.5763 161.99 17.7321 162.193 17.9762ZM168.036 25.7944L161.806 18.2978C161.681 18.1466 161.51 18.0501 161.327 18.0146C161.143 17.9791 160.948 18.0049 160.774 18.0982C160.443 18.276 160.06 18.4772 159.678 18.678C159.301 18.8762 158.925 19.0739 158.585 19.2559C158.561 19.2687 158.535 19.2779 158.506 19.2825C158.369 19.3049 158.24 19.2117 158.217 19.0743C158.085 18.271 157.926 17.7646 157.744 17.4064C157.57 17.0614 157.368 16.8488 157.149 16.634C157.091 16.5761 157.062 16.4908 157.079 16.404C157.161 16.0074 157.13 15.6684 157.037 15.3765C156.946 15.0911 156.794 14.8452 156.627 14.6321C155.71 13.8924 154.792 13.1524 153.868 12.4116C152.967 11.6894 152.046 10.9555 151.086 10.199C150.813 10.1176 150.416 10.1067 149.997 10.2428C149.654 10.3545 149.299 10.5668 148.989 10.9222C148.654 11.3078 148.505 11.7414 148.477 12.1415C148.443 12.6353 148.586 13.0702 148.783 13.2945L149.486 13.8572C150.764 14.8829 152.36 16.1642 154.477 17.6245C154.543 17.638 154.606 17.6558 154.673 17.6748C154.978 17.7604 155.385 17.8748 156.107 17.477C156.2 17.4266 156.317 17.4375 156.399 17.5126C156.74 17.8256 156.925 18.1339 157.036 18.5106C157.142 18.8678 157.176 19.2704 157.219 19.8004C157.226 19.8971 157.177 19.9936 157.086 20.042C156.326 20.4471 155.647 20.8035 154.968 21.1598C154.299 21.5105 153.63 21.8616 152.861 22.2712C152.767 22.3218 152.691 22.3905 152.637 22.4693L152.629 22.482C152.564 22.5802 152.529 22.6942 152.523 22.8095C152.518 22.9256 152.543 23.0426 152.598 23.1459C152.645 23.2343 152.716 23.3145 152.81 23.3771L162.246 29.6082C162.477 29.7606 162.743 29.8344 163.007 29.8299C163.27 29.8254 163.534 29.7426 163.759 29.5823L167.929 26.6189L167.963 26.5916C168.076 26.4989 168.143 26.3697 168.161 26.234L168.162 26.2303C168.18 26.093 168.148 25.9491 168.063 25.8293L168.036 25.7944Z" fill="#008DD2"/>
    <path d="M165.962 12.6702C165.41 12.8555 164.99 13.085 164.692 13.3238C164.291 13.6451 164.122 13.9641 164.156 14.1878L164.157 14.1979L164.165 14.2232C164.195 14.3144 164.271 14.41 164.368 14.4806C164.457 14.5452 164.558 14.5843 164.646 14.5708L164.676 14.5637C164.952 14.4731 165.235 14.2019 165.481 13.805C165.676 13.4922 165.842 13.1059 165.962 12.6702ZM164.378 12.9311C164.795 12.5974 165.407 12.2832 166.232 12.0638C166.27 12.0519 166.312 12.049 166.354 12.057C166.49 12.0832 166.58 12.2154 166.554 12.352C166.425 13.0198 166.194 13.613 165.91 14.0713C165.601 14.5682 165.223 14.9151 164.834 15.0433C164.797 15.0556 164.759 15.0646 164.721 15.0703C164.493 15.1053 164.26 15.0255 164.072 14.889C163.892 14.7586 163.747 14.5704 163.685 14.381C163.675 14.3522 163.668 14.3211 163.661 14.2878L163.656 14.2629C163.597 13.8749 163.822 13.3763 164.378 12.9311Z" fill="#008DD2"/>
    <path d="M169.276 17.626C168.698 17.5539 168.22 17.5796 167.847 17.6656C167.347 17.7814 167.057 17.9949 166.992 18.2104L166.987 18.2244L166.984 18.2452C166.971 18.3413 166.999 18.4613 167.057 18.5683C167.11 18.6649 167.184 18.7439 167.268 18.7694L167.298 18.7769C167.586 18.8146 167.959 18.6926 168.352 18.4413C168.662 18.2436 168.979 17.9674 169.276 17.626ZM167.735 17.1742C168.256 17.0537 168.946 17.0359 169.79 17.1975C169.826 17.2048 169.861 17.2196 169.893 17.243C170.004 17.3257 170.028 17.4835 169.945 17.5951C169.542 18.141 169.077 18.5755 168.623 18.8659C168.131 19.1801 167.64 19.3293 167.234 19.2762C167.199 19.2717 167.167 19.2653 167.138 19.2574L167.122 19.2531C166.9 19.1859 166.725 19.0125 166.613 18.8072C166.508 18.6121 166.458 18.3794 166.484 18.1811C166.489 18.1508 166.494 18.1207 166.502 18.0916L166.508 18.0643C166.622 17.6874 167.041 17.3347 167.735 17.1742Z" fill="#008DD2"/>
    <path d="M155.792 14.6393C155.84 14.9588 155.703 15.4282 155.348 15.8608C155.077 16.1916 154.677 16.5066 154.133 16.7195C154.075 16.7421 154.012 16.732 153.965 16.6981C153.698 16.5043 153.04 15.9963 152.287 15.4071C151.515 14.8018 150.649 14.1162 150.013 13.6033C149.937 13.5424 149.925 13.4314 149.986 13.3554C150.013 13.3223 150.049 13.3013 150.088 13.2933C150.449 13.1985 150.79 12.9421 151.049 12.624C151.325 12.2856 151.505 11.8823 151.518 11.5331C151.521 11.4358 151.603 11.3598 151.7 11.3631C151.741 11.3647 151.778 11.3798 151.807 11.4041C152.465 11.9198 153.116 12.4431 153.768 12.9664C154.43 13.497 155.091 14.0278 155.727 14.5261C155.764 14.5551 155.786 14.5962 155.792 14.6393ZM155.076 15.6371C155.338 15.3174 155.456 14.9893 155.449 14.7562C154.812 14.2559 154.179 13.7484 153.548 13.2412C152.967 12.7758 152.387 12.3098 151.824 11.8662C151.745 12.2016 151.565 12.5484 151.323 12.8463C151.091 13.131 150.798 13.3744 150.477 13.5242C151.087 14.0133 151.834 14.6048 152.504 15.1295C153.181 15.6591 153.785 16.1257 154.093 16.3543C154.53 16.1674 154.855 15.9077 155.076 15.6371Z" fill="#008DD2"/>
    <path d="M156.615 15.265C156.743 15.4641 156.782 15.7982 156.743 16.1151C156.705 16.427 156.591 16.7351 156.415 16.8984C156.253 17.048 156.099 17.1784 155.861 17.2556C155.631 17.3299 155.336 17.3474 154.9 17.2705C154.804 17.2537 154.739 17.1621 154.756 17.066C154.768 16.9996 154.815 16.9485 154.874 16.9287C155.243 16.7757 155.527 16.6262 155.749 16.3939C155.975 16.1586 156.148 15.8285 156.298 15.3112C156.325 15.2178 156.423 15.1641 156.516 15.191C156.559 15.2034 156.593 15.2304 156.615 15.265ZM156.392 16.0731L156.393 16.0626C156.28 16.2975 156.152 16.4833 156.003 16.6383C155.886 16.7608 155.757 16.8623 155.615 16.9525C155.665 16.9444 155.711 16.9335 155.753 16.9198C155.922 16.8652 156.045 16.7601 156.176 16.6395C156.288 16.5364 156.363 16.3112 156.392 16.0731Z" fill="#008DD2"/>
    <path d="M150.675 12.3404L150.632 12.3894C150.474 12.5615 150.206 12.7466 149.942 12.8594C149.64 12.9889 149.327 13.0271 149.134 12.8692L149.111 12.849C148.935 12.685 148.88 12.405 148.928 12.0994C148.973 11.8136 149.108 11.4964 149.314 11.2374L149.323 11.2263C149.526 10.9761 149.804 10.7516 150.078 10.6248C150.389 10.4813 150.704 10.4577 150.933 10.6403L150.943 10.6493C151.17 10.8403 151.174 11.1845 151.078 11.528C150.992 11.8366 150.824 12.1548 150.68 12.3341L150.675 12.3404ZM150.379 12.143L150.405 12.1134C150.524 11.9643 150.665 11.6968 150.738 11.4341C150.8 11.212 150.815 11.0038 150.718 10.92L150.713 10.9164C150.603 10.8291 150.421 10.8552 150.226 10.9452C149.999 11.0499 149.767 11.2378 149.597 11.4482L149.59 11.4571C149.422 11.6689 149.312 11.9249 149.276 12.1533C149.246 12.3463 149.266 12.5108 149.349 12.5898L149.359 12.5978C149.436 12.6563 149.614 12.6164 149.804 12.535C150.025 12.4405 150.245 12.2894 150.372 12.1516L150.379 12.143Z" fill="#008DD2"/>
    <path d="M168.036 25.7944L161.806 18.2978C161.681 18.1466 161.51 18.0501 161.327 18.0146C161.144 17.9791 160.948 18.0049 160.775 18.0982C160.443 18.276 160.06 18.4772 159.678 18.678C159.301 18.8761 158.925 19.0739 158.586 19.2559C158.463 19.3218 158.31 19.2759 158.244 19.1533C158.229 19.1251 158.22 19.095 158.216 19.065C158.084 18.2671 157.925 17.7631 157.745 17.4064C157.57 17.0614 157.369 16.8488 157.149 16.634C157.084 16.5698 157.061 16.4789 157.081 16.3959C157.161 16.0027 157.13 15.6663 157.038 15.3764C156.947 15.0911 156.795 14.8452 156.627 14.632C154.808 13.1656 152.989 11.6987 151.086 10.199C150.814 10.1175 150.416 10.1067 149.997 10.2428C149.654 10.3545 149.299 10.5668 148.989 10.9222C148.654 11.3077 148.505 11.7413 148.478 12.1414C148.443 12.6354 148.586 13.0702 148.783 13.2945L149.486 13.8568C150.764 14.8825 152.361 16.1637 154.477 17.6245C154.543 17.638 154.606 17.656 154.673 17.6748C154.978 17.7604 155.385 17.8748 156.108 17.477C156.208 17.422 156.329 17.4423 156.406 17.5187C156.743 17.8296 156.925 18.1364 157.036 18.5106C157.142 18.8678 157.176 19.2703 157.219 19.8004C157.228 19.9108 157.164 20.0102 157.068 20.0518C156.318 20.4516 155.646 20.8042 154.974 21.1565C154.303 21.5084 153.632 21.8604 152.862 22.2712C152.763 22.3238 152.685 22.3973 152.629 22.4819C152.564 22.58 152.529 22.6938 152.524 22.8084C152.518 22.9249 152.542 23.0423 152.598 23.1459C152.645 23.2343 152.716 23.3145 152.811 23.3771L162.246 29.6082C162.477 29.7606 162.743 29.8344 163.007 29.8299C163.271 29.8254 163.534 29.7425 163.76 29.5823L167.929 26.6188L167.975 26.5827C168.081 26.4896 168.145 26.3628 168.162 26.2303C168.18 26.093 168.148 25.9493 168.063 25.8292L168.036 25.7944ZM162.193 17.9762L168.423 25.4727C168.443 25.4959 168.459 25.5175 168.473 25.5373C168.635 25.7646 168.695 26.0363 168.661 26.2954C168.628 26.5475 168.506 26.7888 168.301 26.9658L168.286 26.9794C168.268 26.9949 168.246 27.0117 168.221 27.0293L164.052 29.9928C163.741 30.2131 163.379 30.3268 163.015 30.3331C162.651 30.3394 162.285 30.238 161.968 30.0285L152.533 23.7974C152.366 23.6874 152.24 23.5436 152.154 23.3827C152.055 23.1972 152.011 22.9901 152.02 22.7868C152.03 22.5816 152.093 22.3787 152.209 22.2036C152.308 22.0528 152.448 21.9216 152.625 21.8271C153.384 21.4225 154.063 21.0664 154.741 20.7106C155.368 20.3819 155.995 20.0531 156.703 19.6762C156.668 19.2546 156.633 18.9243 156.553 18.6526C156.482 18.4139 156.371 18.2094 156.182 18.0065C155.382 18.3978 154.902 18.2629 154.537 18.1602C154.465 18.1398 154.397 18.1206 154.344 18.1117C154.306 18.1065 154.268 18.0927 154.235 18.0693C152.079 16.5839 150.462 15.2866 149.17 14.2495C148.933 14.0589 148.706 13.8775 148.453 13.6761C148.443 13.6681 148.433 13.6592 148.424 13.6495C148.14 13.342 147.93 12.7538 147.974 12.1078C148.009 11.6078 148.193 11.0678 148.608 10.5905C148.983 10.1595 149.419 9.90065 149.842 9.76314C150.388 9.58574 150.918 9.61177 151.277 9.73038C151.307 9.73895 151.336 9.75365 151.363 9.77457C153.237 11.2513 155.092 12.7472 156.947 14.2428L156.964 14.2566C156.977 14.2681 156.99 14.2807 157.001 14.2952C157.209 14.5554 157.401 14.8605 157.517 15.2243C157.624 15.5577 157.665 15.9364 157.597 16.3689C157.812 16.586 158.012 16.8187 158.195 17.1795C158.369 17.5234 158.523 17.9802 158.653 18.6485L159.443 18.2319C159.819 18.0348 160.195 17.8371 160.536 17.6542C160.815 17.5041 161.129 17.4626 161.422 17.5193C161.715 17.5763 161.99 17.7321 162.193 17.9762Z" fill="#008DD2"/>
    <path d="M158.085 22.039C157.628 21.3539 157.171 20.6686 157.203 20.0764C157.214 19.8655 157.262 19.6727 157.368 19.5236C157.484 19.3617 157.659 19.2571 157.915 19.2414C157.989 19.237 158.101 19.2477 158.213 19.2815C158.301 19.3084 158.392 19.3506 158.468 19.412C158.531 19.4638 158.584 19.5259 158.625 19.594C158.668 19.6641 158.7 19.7417 158.721 19.8225C158.764 19.9878 158.848 20.2018 158.956 20.4197C159.056 20.6229 159.177 20.8273 159.302 20.9961C159.433 21.1721 159.58 21.331 159.743 21.4824C159.908 21.6353 160.094 21.7841 160.301 21.9375C160.418 22.0234 160.531 22.1207 160.618 22.2315C160.716 22.355 160.782 22.4942 160.787 22.6516C160.79 22.7272 160.781 22.8005 160.761 22.8693C160.74 22.9408 160.708 23.0074 160.666 23.0672C160.575 23.1986 160.437 23.2972 160.275 23.3477C160.126 23.3939 159.955 23.4001 159.779 23.354L159.765 23.3498C159.282 23.179 158.697 22.6252 158.112 22.0716L158.11 22.0698C158.101 22.0603 158.092 22.05 158.085 22.039ZM157.555 20.0944C157.53 20.566 157.947 21.1966 158.368 21.8283C158.918 22.3494 159.467 22.8675 159.878 23.0151C159.984 23.0414 160.084 23.0377 160.171 23.0109C160.258 22.9836 160.331 22.9326 160.378 22.8655C160.397 22.8372 160.413 22.8056 160.423 22.7713C160.432 22.7387 160.436 22.7025 160.435 22.664C160.433 22.5907 160.396 22.5183 160.342 22.4498C160.278 22.3684 160.187 22.2913 160.091 22.2207C159.878 22.0625 159.683 21.9063 159.504 21.7407C159.324 21.5732 159.163 21.3985 159.019 21.2061C158.88 21.0195 158.749 20.7962 158.64 20.5755C158.522 20.3379 158.429 20.1 158.38 19.9109C158.367 19.8636 158.349 19.8182 158.324 19.7777C158.303 19.7423 158.276 19.7106 158.245 19.6856C158.208 19.6554 158.159 19.6332 158.11 19.6183C158.043 19.5978 157.977 19.5911 157.936 19.5937C157.799 19.6019 157.71 19.6517 157.656 19.7279C157.592 19.8166 157.563 19.9462 157.555 20.0944Z" fill="#008DD2"/>
    <path d="M160.738 12.4996C160.926 12.2776 161.026 11.898 161.03 11.4311C161.032 11.0626 160.974 10.6456 160.849 10.211C160.474 10.6579 160.236 11.0734 160.106 11.4338C159.931 11.9189 159.952 12.2791 160.097 12.4508C160.105 12.4597 160.114 12.4686 160.124 12.4772C160.196 12.5389 160.311 12.5802 160.431 12.5893C160.541 12.5978 160.648 12.5789 160.715 12.5223L160.738 12.4996ZM161.533 11.4332C161.529 12.0185 161.387 12.5125 161.123 12.825C161.097 12.855 161.069 12.8826 161.04 12.9071C160.863 13.0566 160.624 13.1104 160.393 13.0924C160.172 13.0755 159.95 12.9908 159.798 12.8619C159.767 12.8355 159.738 12.8067 159.712 12.7763C159.459 12.4758 159.39 11.9321 159.633 11.2621C159.815 10.758 160.175 10.1675 160.769 9.54544C160.794 9.51882 160.826 9.49706 160.863 9.48337C160.994 9.43498 161.139 9.50117 161.187 9.63137C161.425 10.2676 161.537 10.8941 161.533 11.4332Z" fill="#008DD2"/>
    <path d="M142.237 11.5244C142.73 11.5244 143.177 11.725 143.5 12.0497C143.824 12.3738 144.024 12.8215 144.024 13.3154C144.024 13.8093 143.824 14.2568 143.5 14.5808C143.177 14.9052 142.73 15.1061 142.237 15.1061C141.744 15.1061 141.297 14.9052 140.973 14.5808C140.65 14.2568 140.45 13.8093 140.45 13.3154C140.45 12.8215 140.65 12.3737 140.973 12.0497C141.297 11.725 141.744 11.5244 142.237 11.5244ZM143.251 12.2982C142.991 12.0387 142.633 11.878 142.237 11.878C141.841 11.878 141.482 12.0387 141.223 12.2982C140.964 12.5583 140.803 12.918 140.803 13.3154C140.803 13.7126 140.964 14.0723 141.223 14.3322C141.482 14.5918 141.841 14.7525 142.237 14.7525C142.633 14.7525 142.991 14.5918 143.251 14.3324C143.51 14.0725 143.67 13.7126 143.67 13.3154C143.67 12.918 143.51 12.5581 143.251 12.2982Z" fill="#008DD2"/>
    <path d="M142.821 13.8037C142.883 13.7291 142.994 13.7188 143.069 13.781C143.143 13.8431 143.154 13.9542 143.091 14.0289C142.986 14.1559 142.855 14.2564 142.709 14.3247C142.562 14.3935 142.401 14.4306 142.237 14.4306C141.93 14.4306 141.652 14.3053 141.45 14.1031C141.249 13.9013 141.124 13.6226 141.124 13.3151C141.124 13.0077 141.249 12.7288 141.45 12.5272C141.652 12.3248 141.93 12.1997 142.237 12.1997C142.43 12.1997 142.617 12.2501 142.78 12.3418C142.943 12.4331 143.084 12.5661 143.185 12.7315C143.236 12.8144 143.21 12.9231 143.126 12.9739C143.044 13.0246 142.935 12.9982 142.884 12.9151C142.815 12.8029 142.719 12.7124 142.608 12.6499C142.497 12.5877 142.369 12.5533 142.237 12.5533C142.027 12.5533 141.837 12.6383 141.7 12.7757C141.563 12.9135 141.478 13.1042 141.478 13.3151C141.478 13.5261 141.563 13.7169 141.7 13.8544C141.837 13.9918 142.027 14.077 142.237 14.077C142.351 14.077 142.461 14.0519 142.56 14.0057C142.659 13.9588 142.749 13.8904 142.821 13.8037Z" fill="#008DD2"/>
</svg>
