<svg xmlns="http://www.w3.org/2000/svg" width="16" height="16" viewBox="0 0 16 16" fill="none">
    <mask id="mask0_54924_28798" style="mask-type:alpha" maskUnits="userSpaceOnUse" x="0" y="0" width="16" height="16">
        <rect width="16" height="16" fill="#D9D9D9"/>
    </mask>
    <g mask="url(#mask0_54924_28798)">
        <path d="M5.0835 4.26683L6.95016 1.85016C7.0835 1.67239 7.24183 1.54183 7.42516 1.4585C7.6085 1.37516 7.80016 1.3335 8.00016 1.3335C8.20016 1.3335 8.39183 1.37516 8.57516 1.4585C8.7585 1.54183 8.91683 1.67239 9.05016 1.85016L10.9168 4.26683L13.7502 5.21683C14.0391 5.30572 14.2668 5.46961 14.4335 5.7085C14.6002 5.94739 14.6835 6.21127 14.6835 6.50016C14.6835 6.6335 14.6641 6.76683 14.6252 6.90016C14.5863 7.0335 14.5224 7.16127 14.4335 7.2835L12.6002 9.8835L12.6668 12.6168C12.6779 13.0057 12.5502 13.3335 12.2835 13.6002C12.0168 13.8668 11.7057 14.0002 11.3502 14.0002C11.3279 14.0002 11.2057 13.9835 10.9835 13.9502L8.00016 13.1168L5.01683 13.9502C4.96127 13.9724 4.90016 13.9863 4.8335 13.9918C4.76683 13.9974 4.70572 14.0002 4.65016 14.0002C4.29461 14.0002 3.9835 13.8668 3.71683 13.6002C3.45016 13.3335 3.32238 13.0057 3.3335 12.6168L3.40016 9.86683L1.5835 7.2835C1.49461 7.16127 1.43072 7.0335 1.39183 6.90016C1.35294 6.76683 1.3335 6.6335 1.3335 6.50016C1.3335 6.22238 1.41405 5.96405 1.57516 5.72516C1.73627 5.48627 1.96127 5.31683 2.25016 5.21683L5.0835 4.26683Z" fill="#F58619"/>
    </g>
</svg>
