<svg xmlns="http://www.w3.org/2000/svg" width="49" height="34" viewBox="0 0 49 34" fill="none">
    <path fill-rule="evenodd" clip-rule="evenodd" d="M43.1142 1.22429C45.1702 1.77783 46.7913 3.39891 47.3448 5.45492C48.3728 9.21108 48.3333 17.0397 48.3333 17.0397C48.3333 17.0397 48.3333 24.8288 47.3448 28.585C46.7913 30.641 45.1702 32.2621 43.1142 32.8156C39.358 33.8041 24.3334 33.8041 24.3334 33.8041C24.3334 33.8041 9.34828 33.8041 5.55258 32.7761C3.49658 32.2225 1.8755 30.6014 1.32196 28.5454C0.333496 24.8288 0.333496 17.0002 0.333496 17.0002C0.333496 17.0002 0.333496 9.21108 1.32196 5.45492C1.8755 3.39891 3.53612 1.73829 5.55258 1.18475C9.30875 0.196289 24.3334 0.196289 24.3334 0.196289C24.3334 0.196289 39.358 0.196289 43.1142 1.22429ZM19.5493 9.8042L32.0435 17.0002L19.5493 24.1962V9.8042Z" fill="#006496"/>
</svg>
